<svg width="639" height="648" viewBox="0 0 639 648" fill="none" xmlns="http://www.w3.org/2000/svg">
<path d="M349.635 701.229C536.077 701.229 688.219 554.986 698.509 370.646H0.761719C11.0515 554.986 163.194 701.229 349.635 701.229Z" fill="white" fill-opacity="0.06"/>
<path d="M349.624 0C162.938 0 10.3057 146.98 0.505859 331.812H698.498C688.943 146.98 536.311 0 349.624 0Z" fill="white" fill-opacity="0.12"/>
<path d="M699.217 350.737C699.217 344.347 698.972 338.202 698.727 331.812H543.89C551.975 293.96 554.915 255.618 541.93 221.453C524.78 175.737 491.216 146.243 441.237 155.091C411.102 160.498 385.623 183.602 354.753 185.569C330.744 187.289 307.224 170.084 285.175 162.465C226.131 142.064 179.827 160.744 157.287 221.208C144.547 255.372 147.242 293.715 155.327 331.566H0.490021C0.245025 337.711 0 344.101 0 350.491C0 357.128 0.245025 364.01 0.490021 370.646H165.372C168.067 379.74 170.762 388.834 173.702 397.682L181.297 421.769C182.767 426.685 184.237 431.355 185.707 436.025C196.241 472.402 244.505 591.116 282.725 591.116C312.124 591.116 301.834 524.017 329.274 470.189C334.664 459.621 341.524 452.739 349.854 452.247C358.428 452.739 365.043 459.621 370.433 470.189C397.873 524.017 387.583 591.116 416.982 591.116C455.201 591.116 503.466 472.402 514 436.025C515.225 431.355 516.695 426.685 518.41 421.769L526.005 397.682C528.7 388.834 531.64 379.74 534.335 370.646H698.482C698.972 364.01 699.217 357.373 699.217 350.737Z" fill="#4C514D"/>
</svg>
