<svg width="287" height="416" viewBox="0 0 287 416" fill="none" xmlns="http://www.w3.org/2000/svg">
<path d="M207.418 416C318.024 416 408.281 329.242 414.386 219.884H0.451172C6.55554 329.242 96.813 416 207.418 416Z" fill="white" fill-opacity="0.06"/>
<path d="M207.413 0C96.6626 0 6.11447 87.1953 0.300781 196.846H414.381C408.712 87.1953 318.164 0 207.413 0Z" fill="white" fill-opacity="0.12"/>
<path d="M414.806 208.073C414.806 204.282 414.661 200.636 414.516 196.845H322.66C327.456 174.39 329.2 151.644 321.497 131.376C311.323 104.255 291.411 86.7577 261.761 92.0069C243.884 95.2148 228.769 108.921 210.455 110.088C196.212 111.108 182.259 100.901 169.178 96.3812C134.151 84.2789 106.681 95.3606 93.3097 131.23C85.7519 151.498 87.3506 174.245 92.1469 196.7H0.290702C0.14536 200.345 0 204.136 0 207.927C0 211.864 0.14536 215.947 0.290702 219.884H98.1059C99.7047 225.279 101.303 230.674 103.048 235.923L107.553 250.212C108.425 253.129 109.297 255.899 110.169 258.669C116.419 280.25 145.051 350.676 167.725 350.676C185.166 350.676 179.061 310.87 195.34 278.937C198.537 272.667 202.607 268.585 207.549 268.293C212.636 268.585 216.56 272.667 219.757 278.937C236.036 310.87 229.931 350.676 247.372 350.676C270.046 350.676 298.678 280.25 304.928 258.669C305.655 255.899 306.527 253.129 307.544 250.212L312.05 235.923C313.648 230.674 315.392 225.279 316.991 219.884H414.37C414.661 215.947 414.806 212.01 414.806 208.073Z" fill="#4C514D"/>
</svg>
