<svg width="98" height="28" viewBox="0 0 98 28" fill="none" xmlns="http://www.w3.org/2000/svg">
<path d="M13.4835 27.0426C20.6735 27.0426 26.5408 21.4028 26.9377 14.2938H0.0292969C0.42612 21.4028 6.29342 27.0426 13.4835 27.0426Z" fill="#2ECDDC"/>
<path d="M13.4832 0C6.28366 0 0.397458 5.66825 0.0195312 12.7962H26.9373C26.5689 5.66825 20.6827 0 13.4832 0Z" fill="#246BA7"/>
<path d="M26.965 13.5261C26.965 13.2797 26.9556 13.0427 26.9462 12.7963H20.9749C21.2867 11.3365 21.4001 9.85787 20.8993 8.54034C20.238 6.7773 18.9436 5.63986 17.0161 5.98109C15.854 6.18963 14.8714 7.08062 13.6809 7.15645C12.755 7.2228 11.848 6.55929 10.9977 6.26545C8.72065 5.47872 6.93495 6.1991 6.06572 8.53086C5.57442 9.84839 5.67834 11.3271 5.99013 12.7868H0.0188975C0.00944931 13.0237 0 13.2702 0 13.5166C0 13.7726 0.00944931 14.038 0.0188975 14.2939H6.37751C6.48144 14.6446 6.58537 14.9953 6.69875 15.3365L6.99164 16.2655C7.04833 16.455 7.10502 16.6351 7.16171 16.8152C7.56798 18.2181 9.42926 22.7963 10.9032 22.7963C12.037 22.7963 11.6401 20.2086 12.6983 18.1328C12.9062 17.7252 13.1707 17.4598 13.492 17.4408C13.8227 17.4598 14.0778 17.7252 14.2856 18.1328C15.3438 20.2086 14.947 22.7963 16.0808 22.7963C17.5547 22.7963 19.416 18.2181 19.8222 16.8152C19.8695 16.6351 19.9262 16.455 19.9923 16.2655L20.2852 15.3365C20.3891 14.9953 20.5025 14.6446 20.6064 14.2939H26.9367C26.9556 14.038 26.965 13.782 26.965 13.5261Z" fill="white"/>
<path d="M34.5058 8.32221C33.6743 7.9715 32.8996 7.63975 32.8996 6.83406C32.8996 6.21795 33.4759 5.5734 34.4302 5.5734C35.375 5.5734 36.0269 6.19899 36.0364 6.19899L36.0553 6.21795L36.4332 5.56392L36.4237 5.55444C36.4143 5.54497 36.2442 5.36487 35.9135 5.18478C35.6112 5.01416 35.101 4.82458 34.4302 4.82458C33.1263 4.82458 32.1059 5.71558 32.1059 6.85302C32.1059 8.08525 33.1263 8.53075 34.1089 8.95729C34.9782 9.33643 35.8002 9.69662 35.8002 10.5687C35.8002 11.3175 35.2049 11.8388 34.3546 11.8388C33.2114 11.8388 32.4461 11.0331 32.4366 11.0331L32.4177 11.0142L31.9453 11.6113L31.9548 11.6208C31.9642 11.6303 32.8145 12.5876 34.3168 12.5876C35.649 12.5876 36.5844 11.744 36.5844 10.5497C36.5938 9.20373 35.4789 8.73928 34.5058 8.32221Z" fill="white"/>
<path d="M40.3639 7.66813C40.1655 8.00936 39.967 8.4359 39.9198 8.54017C39.8726 8.4359 39.6647 7.99988 39.4757 7.66813L37.8979 4.94775H37.0098L39.523 9.23211V12.4549H40.3072V9.23211L42.7826 4.98567L42.8015 4.94775H41.9228L40.3639 7.66813Z" fill="white"/>
<path d="M45.9851 4.95728H43.5664V12.4644H45.9757C48.281 12.4644 49.7172 11.0236 49.7172 8.70135C49.7172 6.38855 48.2905 4.95728 45.9851 4.95728ZM45.9095 11.7535H44.3412V5.6587H45.9095C47.7897 5.6587 48.9141 6.79614 48.9141 8.70135C48.9141 10.616 47.7897 11.7535 45.9095 11.7535Z" fill="white"/>
<path d="M55.9809 10.3506C55.9809 10.6634 56.0187 11.1279 56.0376 11.2985C55.9431 11.1374 55.6596 10.6445 55.4518 10.3412L51.6725 4.96675L51.6631 4.95728H50.9355V12.4644H51.7103V7.07102C51.7103 6.75822 51.6725 6.29377 51.6536 6.12315C51.7481 6.28429 52.0315 6.77718 52.2394 7.0805L56.0187 12.4549L56.0281 12.4644H56.7651V4.95728H55.9903V10.3506H55.9809Z" fill="white"/>
<path d="M58.9955 9.0331H61.811V8.33168H58.9955V5.6587H62.4346V4.95728H58.2207V12.4644H62.633V11.7535H58.9955V9.0331Z" fill="white"/>
<path d="M66.5436 7.66825C66.3451 8.00949 66.1467 8.43603 66.0995 8.54029C66.0523 8.43603 65.8444 8.00001 65.6554 7.66825L64.0776 4.94788H63.1895L65.7027 9.23223V12.455H66.4869V9.23223L68.9623 4.98579L68.9812 4.94788H68.1025L66.5436 7.66825Z" fill="white"/>
<path d="M74.6611 9.13737C75.5114 8.89093 76.0594 8.09472 76.0594 7.09946C76.0594 6.19898 75.6342 5.46912 74.9256 5.15633C74.6327 5.03311 74.302 4.95728 73.5273 4.95728H71.3164V12.4644H72.0912V9.32694H73.9147L75.5775 12.4549L75.587 12.4644H76.4751L74.85 9.42173C74.7461 9.25111 74.68 9.16581 74.6611 9.13737ZM73.8202 8.61604H72.0912V5.6587H73.5651C74.1509 5.6587 74.3965 5.72505 74.6044 5.83879C75.0295 6.06628 75.2657 6.52126 75.2657 7.11841C75.2563 8.03785 74.7083 8.61604 73.8202 8.61604Z" fill="white"/>
<path d="M80.7731 4.82458C78.6473 4.82458 76.9844 6.51179 76.9844 8.66345C76.9844 9.72506 77.3812 10.7108 78.0898 11.4502C78.7984 12.1895 79.7527 12.5876 80.7731 12.5876C81.7935 12.5876 82.7478 12.18 83.4564 11.4502C84.165 10.7108 84.5618 9.72506 84.5618 8.66345C84.5618 6.51179 82.8989 4.82458 80.7731 4.82458ZM80.7731 11.8578C79.1008 11.8578 77.7875 10.4549 77.7875 8.65397C77.7875 6.90989 79.1008 5.54496 80.7731 5.54496C82.4454 5.54496 83.7587 6.90989 83.7587 8.65397C83.7587 10.4549 82.4454 11.8578 80.7731 11.8578Z" fill="white"/>
<path d="M88.2755 4.95728H87.4629L84.7419 12.436L84.7324 12.4644H85.5544L86.3953 10.0852H89.3431L90.1935 12.4644H91.0154L88.2944 4.96675L88.2755 4.95728ZM86.6126 9.40278L87.5858 6.72979C87.6897 6.43595 87.822 5.96201 87.8598 5.81036C87.8976 5.96201 88.0298 6.43595 88.1338 6.72979L89.088 9.40278H86.6126Z" fill="white"/>
<path d="M94.1339 4.95728H91.7246V12.4644H94.1339C96.4392 12.4644 97.8754 11.0236 97.8754 8.70135C97.8754 6.38855 96.4392 4.95728 94.1339 4.95728ZM94.0583 11.7535H92.4899V5.6587H94.0583C95.9385 5.6587 97.0628 6.79614 97.0628 8.70135C97.0723 10.616 95.9479 11.7535 94.0583 11.7535Z" fill="white"/>
<path d="M32.4648 14.5592H34.7796C36.9716 14.5592 38.455 15.9147 38.455 18.2748C38.455 20.6445 36.9716 21.9905 34.7796 21.9905H32.4648V14.5592ZM34.7041 21.5639C36.6598 21.5639 37.9731 20.4075 37.9731 18.2748C37.9731 16.1516 36.6598 14.9857 34.7041 14.9857H32.9184V21.5639H34.7041Z" fill="white"/>
<path d="M39.834 14.5592H43.8684V14.9857H40.2875V18.0284H43.2259V18.4549H40.2875V21.5639H44.0668V21.9905H39.834V14.5592Z" fill="white"/>
<path d="M45.6348 14.5592H46.0599L50.2549 20.3886C50.5006 20.7298 50.8501 21.3175 50.8501 21.3175H50.869C50.869 21.3175 50.8124 20.7583 50.8124 20.3886V14.5592H51.2659V21.9905H50.8407L46.6552 16.1611C46.4095 15.8199 46.0599 15.2322 46.0599 15.2322H46.041C46.041 15.2322 46.0977 15.7914 46.0977 16.1611V21.9905H45.6442L45.6348 14.5592Z" fill="white"/>
<path d="M55.5561 14.9857H52.8066V14.5592H58.7495V14.9857H56.0001V21.9905H55.5466L55.5561 14.9857Z" fill="white"/>
<path d="M62.9915 19.4218H59.8642L58.9194 21.9905H58.4375L61.1964 14.5592H61.6782L64.4371 21.9905H63.9552L62.9915 19.4218ZM61.4231 15.09C61.4231 15.09 61.2625 15.6587 61.1491 15.981L60.0248 18.9952H62.8309L61.716 15.981C61.6026 15.6587 61.442 15.09 61.442 15.09H61.4231Z" fill="white"/>
<path d="M66.0723 14.5592H66.5258V21.5639H70.0405V21.9905H66.0723V14.5592Z" fill="white"/>
<path d="M75.7095 14.436C77.4574 14.436 78.3361 15.3649 78.3361 15.3649L78.0621 15.7062C78.0621 15.7062 77.1929 14.8721 75.7189 14.8721C73.9049 14.8721 72.5349 16.3033 72.5349 18.2275C72.5349 20.1612 73.9049 21.6872 75.7567 21.6872C77.3346 21.6872 78.251 20.6825 78.251 20.6825L78.5345 21.0048C78.5345 21.0048 77.5424 22.1327 75.7567 22.1327C73.612 22.1327 72.0625 20.3886 72.0625 18.237C72.0625 16.0664 73.6403 14.436 75.7095 14.436Z" fill="white"/>
<path d="M83.89 19.4218H80.7626L79.8178 21.9905H79.3359L82.0948 14.5592H82.5767L85.3355 21.9905H84.8537L83.89 19.4218ZM82.3216 15.09C82.3216 15.09 82.1609 15.6587 82.0476 15.981L80.9232 18.9952H83.7293L82.6145 15.981C82.5011 15.6587 82.3405 15.09 82.3405 15.09H82.3216Z" fill="white"/>
<path d="M86.5466 14.5592H88.7007C89.381 14.5592 89.7306 14.635 90.0235 14.7772C90.6376 15.0805 91.0439 15.7061 91.0439 16.5592C91.0439 17.6208 90.4297 18.417 89.57 18.6066V18.6256C89.57 18.6256 89.6455 18.7109 89.74 18.891L91.3935 21.981H90.8549L89.107 18.6919H86.9906V21.981H86.5371V14.5592H86.5466ZM89.0031 18.2748C89.9668 18.2748 90.5809 17.5734 90.5809 16.5687C90.5809 15.9147 90.2597 15.3839 89.7211 15.1374C89.5133 15.0426 89.2771 14.9857 88.6913 14.9857H87.0095V18.2748H89.0031Z" fill="white"/>
<path d="M92.7617 14.5592H96.7961V14.9857H93.2152V18.0284H96.1536V18.4549H93.2152V21.5639H96.9945V21.9905H92.7617V14.5592Z" fill="white"/>
</svg>
