<svg width="36" height="36" viewBox="0 0 36 36" fill="none" xmlns="http://www.w3.org/2000/svg">
<path opacity="0.4" d="M13.5 3C9.57 3 6.375 6.195 6.375 10.125C6.375 13.98 9.39 17.1 13.32 17.235C13.44 17.22 13.56 17.22 13.65 17.235C13.68 17.235 13.695 17.235 13.725 17.235C13.74 17.235 13.74 17.235 13.755 17.235C17.595 17.1 20.61 13.98 20.625 10.125C20.625 6.195 17.43 3 13.5 3Z" fill="white"/>
<path d="M21.1199 21.2248C16.9349 18.4348 10.1099 18.4348 5.89494 21.2248C3.98994 22.4998 2.93994 24.2248 2.93994 26.0698C2.93994 27.9148 3.98994 29.6248 5.87994 30.8848C7.97994 32.2948 10.7399 32.9998 13.4999 32.9998C16.2599 32.9998 19.0199 32.2948 21.1199 30.8848C23.0099 29.6098 24.0599 27.8998 24.0599 26.0398C24.0449 24.1948 23.0099 22.4848 21.1199 21.2248Z" fill="white"/>
<path opacity="0.4" d="M29.985 11.0101C30.225 13.9202 28.155 16.4701 25.29 16.8152C25.275 16.8152 25.275 16.8152 25.26 16.8152H25.215C25.125 16.8152 25.035 16.8151 24.96 16.8451C23.505 16.9201 22.17 16.4551 21.165 15.6002C22.71 14.2201 23.595 12.1501 23.415 9.90015C23.31 8.68515 22.89 7.57515 22.26 6.63015C22.83 6.34515 23.49 6.16515 24.165 6.10515C27.105 5.85015 29.73 8.04015 29.985 11.0101Z" fill="white"/>
<path d="M32.9849 24.8851C32.8649 26.3401 31.9349 27.6001 30.3749 28.4551C28.8749 29.2801 26.9849 29.6701 25.1099 29.6251C26.1899 28.6501 26.8199 27.4351 26.9399 26.1451C27.0899 24.2851 26.2049 22.5001 24.4349 21.0751C23.4299 20.2801 22.2599 19.6501 20.9849 19.1851C24.2999 18.2251 28.4699 18.8701 31.0349 20.9401C32.4149 22.0501 33.1199 23.4451 32.9849 24.8851Z" fill="white"/>
</svg>
