<svg width="100" height="100" viewBox="0 0 100 100" fill="none" xmlns="http://www.w3.org/2000/svg">
<path opacity="0.4" d="M37.5 8.3335C26.5833 8.3335 17.7083 17.2085 17.7083 28.1252C17.7083 38.8335 26.0833 47.5002 37 47.8752C37.3333 47.8335 37.6667 47.8335 37.9167 47.8752C38 47.8752 38.0417 47.8752 38.125 47.8752C38.1667 47.8752 38.1667 47.8752 38.2083 47.8752C48.875 47.5002 57.25 38.8335 57.2917 28.1252C57.2917 17.2085 48.4167 8.3335 37.5 8.3335Z" fill="#948C86"/>
<path d="M58.6667 58.9585C47.0417 51.2085 28.0833 51.2085 16.375 58.9585C11.0833 62.5002 8.16666 67.2918 8.16666 72.4168C8.16666 77.5418 11.0833 82.2918 16.3333 85.7918C22.1667 89.7085 29.8333 91.6668 37.5 91.6668C45.1667 91.6668 52.8333 89.7085 58.6667 85.7918C63.9167 82.2502 66.8333 77.5002 66.8333 72.3335C66.7917 67.2085 63.9167 62.4585 58.6667 58.9585Z" fill="#948C86"/>
<path opacity="0.4" d="M83.2917 30.5834C83.9583 38.6668 78.2083 45.7501 70.25 46.7084C70.2083 46.7084 70.2083 46.7084 70.1667 46.7084H70.0417C69.7917 46.7084 69.5417 46.7084 69.3333 46.7918C65.2917 47.0001 61.5833 45.7084 58.7917 43.3334C63.0833 39.5001 65.5417 33.7501 65.0417 27.5001C64.75 24.1251 63.5833 21.0418 61.8333 18.4168C63.4167 17.6251 65.25 17.1251 67.125 16.9584C75.2917 16.2501 82.5833 22.3334 83.2917 30.5834Z" fill="#948C86"/>
<path d="M91.625 69.1249C91.2917 73.1665 88.7083 76.6665 84.375 79.0415C80.2083 81.3332 74.9583 82.4165 69.75 82.2915C72.75 79.5832 74.5 76.2082 74.8333 72.6249C75.25 67.4582 72.7917 62.4999 67.875 58.5415C65.0833 56.3332 61.8333 54.5832 58.2917 53.2915C67.5 50.6249 79.0833 52.4165 86.2083 58.1665C90.0417 61.2499 92 65.1249 91.625 69.1249Z" fill="#948C86"/>
</svg>
