<svg width="100" height="100" viewBox="0 0 100 100" fill="none" xmlns="http://www.w3.org/2000/svg">
<path opacity="0.4" d="M79.1667 37.5002C79.1667 43.5418 77.375 49.0836 74.2917 53.7086C69.7917 60.3752 62.6667 65.0835 54.375 66.2918C52.9584 66.5418 51.5 66.6668 50 66.6668C48.5 66.6668 47.0417 66.5418 45.625 66.2918C37.3334 65.0835 30.2084 60.3752 25.7084 53.7086C22.625 49.0836 20.8334 43.5418 20.8334 37.5002C20.8334 21.3752 33.875 8.3335 50 8.3335C66.125 8.3335 79.1667 21.3752 79.1667 37.5002Z" fill="#948C86"/>
<path d="M88.5417 76.9584L81.6667 78.5833C80.125 78.9583 78.9167 80.1251 78.5833 81.6667L77.125 87.7917C76.3333 91.1251 72.0833 92.1251 69.875 89.5001L50 66.6667L30.125 89.5417C27.9167 92.1667 23.6667 91.1666 22.875 87.8333L21.4167 81.7083C21.0417 80.1666 19.8333 78.9583 18.3333 78.625L11.4583 77.0001C8.29167 76.2501 7.16667 72.2916 9.45834 70L25.7083 53.75C30.2083 60.4167 37.3333 65.1251 45.625 66.3334C47.0417 66.5834 48.5 66.7084 50 66.7084C51.5 66.7084 52.9583 66.5834 54.375 66.3334C62.6667 65.1251 69.7917 60.4167 74.2917 53.75L90.5417 70C92.8333 72.25 91.7083 76.2084 88.5417 76.9584Z" fill="#948C86"/>
<path d="M52.4167 24.9165L54.8751 29.8331C55.2084 30.4998 56.0834 31.1665 56.875 31.2915L61.3334 32.0415C64.1667 32.4998 64.8334 34.5832 62.7917 36.6248L59.3334 40.0831C58.7501 40.6664 58.4167 41.7915 58.625 42.6248L59.6251 46.9165C60.4167 50.2915 58.6251 51.6248 55.6251 49.8331L51.4584 47.3748C50.7084 46.9164 49.4584 46.9164 48.7084 47.3748L44.5417 49.8331C41.5417 51.5831 39.75 50.2915 40.5417 46.9165L41.5417 42.6248C41.7084 41.8332 41.4167 40.6664 40.8334 40.0831L37.3751 36.6248C35.3334 34.5832 36 32.5415 38.8334 32.0415L43.2917 31.2915C44.0417 31.1665 44.9167 30.4998 45.25 29.8331L47.7084 24.9165C48.9167 22.2498 51.0834 22.2498 52.4167 24.9165Z" fill="#948C86"/>
</svg>
