<svg width="48" height="48" viewBox="0 0 48 48" fill="none" xmlns="http://www.w3.org/2000/svg">
<rect width="48" height="48" rx="12" fill="#99A4BF"/>
<path d="M34.6666 24.2664V26.533C34.6666 30.733 32.2666 32.533 28.6666 32.533H16.6666C13.0666 32.533 10.6666 30.733 10.6666 26.533V19.333C10.6666 15.133 13.0666 13.333 16.6666 13.333H20.2666C20.0933 13.8397 20 14.3997 20 14.9997V20.1997C20 21.493 20.4266 22.5864 21.1866 23.3464C21.9466 24.1064 23.04 24.533 24.3333 24.533V26.3863C24.3333 27.0663 25.1066 27.4797 25.68 27.1064L29.5333 24.533H33C33.6 24.533 34.16 24.4397 34.6666 24.2664Z" fill="white"/>
<path opacity="0.4" d="M37.3333 15.0003V20.2004C37.3333 22.187 36.32 23.6803 34.6667 24.267C34.16 24.4403 33.6 24.5337 33 24.5337H29.5333L25.68 27.107C25.1067 27.4803 24.3333 27.067 24.3333 26.387V24.5337C23.04 24.5337 21.9467 24.107 21.1867 23.347C20.4267 22.587 20 21.4937 20 20.2004V15.0003C20 14.4003 20.0933 13.8403 20.2667 13.3337C20.8533 11.6803 22.3467 10.667 24.3333 10.667H33C35.6 10.667 37.3333 12.4003 37.3333 15.0003Z" fill="white"/>
<path opacity="0.4" d="M27.4667 36.3332H23.6667V32.5332C23.6667 31.9865 23.2134 31.5332 22.6667 31.5332C22.12 31.5332 21.6667 31.9865 21.6667 32.5332V36.3332H17.8667C17.32 36.3332 16.8667 36.7865 16.8667 37.3332C16.8667 37.8798 17.32 38.3332 17.8667 38.3332H27.4667C28.0134 38.3332 28.4667 37.8798 28.4667 37.3332C28.4667 36.7865 28.0134 36.3332 27.4667 36.3332Z" fill="white"/>
<path d="M28.5867 18.667C28.0267 18.667 27.5867 18.2137 27.5867 17.667C27.5867 17.1203 28.04 16.667 28.5867 16.667C29.1333 16.667 29.5867 17.1203 29.5867 17.667C29.5867 18.2137 29.1333 18.667 28.5867 18.667Z" fill="#101010"/>
<path d="M32.3334 18.667C31.7734 18.667 31.3334 18.2137 31.3334 17.667C31.3334 17.1203 31.7867 16.667 32.3334 16.667C32.88 16.667 33.3334 17.1203 33.3334 17.667C33.3334 18.2137 32.88 18.667 32.3334 18.667Z" fill="#101010"/>
<path d="M24.8267 18.667C24.2667 18.667 23.8267 18.2137 23.8267 17.667C23.8267 17.1203 24.28 16.667 24.8267 16.667C25.3733 16.667 25.8267 17.1203 25.8267 17.667C25.8267 18.2137 25.3867 18.667 24.8267 18.667Z" fill="#101010"/>
</svg>
