<svg width="41" height="41" viewBox="0 0 41 41" fill="none" xmlns="http://www.w3.org/2000/svg">
<path d="M20.2892 40.5637C31.1091 40.5637 39.9385 32.1039 40.5356 21.4404H0.0427246C0.639881 32.1039 9.46926 40.5637 20.2892 40.5637Z" fill="#A7C3EC"/>
<path d="M20.2892 0C9.4551 0 0.597285 8.50237 0.0285645 19.1943H40.5357C39.9812 8.50237 31.1234 0 20.2892 0Z" fill="#C5DBFB"/>
<path d="M40.5782 20.2891C40.5782 19.9194 40.564 19.5639 40.5498 19.1943H31.564C32.0332 17.0047 32.2038 14.7867 31.4502 12.8104C30.455 10.1658 28.5071 8.45967 25.6066 8.97152C23.8578 9.28432 22.3791 10.6208 20.5877 10.7346C19.1943 10.8341 17.8294 9.83882 16.5498 9.39806C13.1232 8.21797 10.436 9.29853 9.12796 12.7962C8.38863 14.7725 8.54502 16.9905 9.01422 19.1801H0.0284378C0.0142197 19.5355 0 19.9052 0 20.2748C0 20.6587 0.0142197 21.0568 0.0284378 21.4407H9.59716C9.75355 21.9668 9.90995 22.4928 10.0806 23.0047L10.5213 24.3981C10.6066 24.6824 10.6919 24.9526 10.7773 25.2227C11.3886 27.327 14.1896 34.1943 16.4076 34.1943C18.1137 34.1943 17.5166 30.3127 19.109 27.199C19.4218 26.5876 19.8199 26.1895 20.3033 26.1611C20.8009 26.1895 21.1848 26.5876 21.4976 27.199C23.09 30.3127 22.4929 34.1943 24.199 34.1943C26.4171 34.1943 29.218 27.327 29.8294 25.2227C29.9005 24.9526 29.9858 24.6824 30.0853 24.3981L30.5261 23.0047C30.6825 22.4928 30.8531 21.9668 31.0095 21.4407H40.5355C40.564 21.0568 40.5782 20.6729 40.5782 20.2891Z" fill="white"/>
</svg>
