<svg width="100" height="100" viewBox="0 0 100 100" fill="none" xmlns="http://www.w3.org/2000/svg">
<path opacity="0.4" d="M44.7917 10.2085C47.6667 7.75016 52.375 7.75016 55.2916 10.2085L61.875 15.8751C63.125 16.9584 65.4583 17.8336 67.125 17.8336H74.2083C78.625 17.8336 82.25 21.4585 82.25 25.8752V32.9583C82.25 34.5833 83.125 36.9584 84.2083 38.2084L89.875 44.7918C92.3334 47.6668 92.3334 52.3752 89.875 55.2919L84.2083 61.875C83.125 63.125 82.25 65.4584 82.25 67.125V74.2084C82.25 78.6251 78.625 82.2501 74.2083 82.2501H67.125C65.5 82.2501 63.125 83.1252 61.875 84.2085L55.2916 89.8751C52.4166 92.3335 47.7083 92.3335 44.7917 89.8751L38.2084 84.2085C36.9584 83.1252 34.625 82.2501 32.9584 82.2501H25.75C21.3333 82.2501 17.7083 78.6251 17.7083 74.2084V67.0833C17.7083 65.4583 16.8334 63.125 15.7917 61.875L10.1667 55.2502C7.75002 52.3752 7.75002 47.7085 10.1667 44.8335L15.7917 38.2084C16.8334 36.9584 17.7083 34.625 17.7083 33V25.8752C17.7083 21.4585 21.3333 17.8336 25.75 17.8336H32.9584C34.5834 17.8336 36.9584 16.9584 38.2084 15.8751L44.7917 10.2085Z" fill="#948C86"/>
<path d="M69.0833 46.1251C68.2916 45.0001 66.9584 44.3751 65.375 44.3751H57.25C56.7083 44.3751 56.2084 44.1667 55.875 43.75C55.5417 43.3334 55.375 42.7917 55.4583 42.2084L56.4583 35.7084C56.875 33.7917 55.5834 31.5833 53.6667 30.9583C51.875 30.2917 49.75 31.2083 48.9166 32.4583L40.8333 44.4583V42.9583C40.8333 40.0417 39.5834 38.8334 36.5001 38.8334H34.4583C31.375 38.8334 30.1251 40.0417 30.1251 42.9583V62.8751C30.1251 65.7918 31.375 67.0001 34.4583 67.0001H36.5001C39.4167 67.0001 40.6667 65.875 40.7917 63.2083L46.9167 67.9166C47.7501 68.75 49.6251 69.2083 50.9584 69.2083H58.6666C61.3333 69.2083 64 67.2083 64.5834 64.7499L69.4584 49.9166C70.0001 48.5833 69.875 47.2084 69.0833 46.1251Z" fill="#948C86"/>
</svg>
