<svg width="48" height="48" viewBox="0 0 48 48" fill="none" xmlns="http://www.w3.org/2000/svg">
<rect width="48" height="48" rx="12" fill="#99A4BF"/>
<path opacity="0.4" d="M29.5867 10.667H18.4134C13.56 10.667 10.6667 13.5603 10.6667 18.4137V29.5737C10.6667 34.4403 13.56 37.3337 18.4134 37.3337H29.5734C34.4267 37.3337 37.32 34.4403 37.32 29.587V18.4137C37.3334 13.5603 34.44 10.667 29.5867 10.667Z" fill="white"/>
<path d="M28.6666 21.5065C30.051 21.5065 31.1733 20.3842 31.1733 18.9998C31.1733 17.6154 30.051 16.4932 28.6666 16.4932C27.2822 16.4932 26.16 17.6154 26.16 18.9998C26.16 20.3842 27.2822 21.5065 28.6666 21.5065Z" fill="white"/>
<path d="M19.3333 21.5065C20.7177 21.5065 21.84 20.3842 21.84 18.9998C21.84 17.6154 20.7177 16.4932 19.3333 16.4932C17.9489 16.4932 16.8267 17.6154 16.8267 18.9998C16.8267 20.3842 17.9489 21.5065 19.3333 21.5065Z" fill="white"/>
<path d="M28.8 25.2266H19.2C18.2667 25.2266 17.5067 25.9866 17.5067 26.9332C17.5067 30.5199 20.4267 33.4399 24.0133 33.4399C27.6 33.4399 30.52 30.5199 30.52 26.9332C30.5067 25.9999 29.7333 25.2266 28.8 25.2266Z" fill="white"/>
</svg>
