<svg width="48" height="48" viewBox="0 0 48 48" fill="none" xmlns="http://www.w3.org/2000/svg">
<rect width="48" height="48" rx="12" fill="#99A4BF"/>
<path opacity="0.4" d="M20 10.667C16.5067 10.667 13.6667 13.507 13.6667 17.0003C13.6667 20.427 16.3467 23.2003 19.84 23.3203C19.9467 23.307 20.0533 23.307 20.1333 23.3203C20.16 23.3203 20.1733 23.3203 20.2 23.3203C20.2133 23.3203 20.2133 23.3203 20.2267 23.3203C23.64 23.2003 26.32 20.427 26.3333 17.0003C26.3333 13.507 23.4933 10.667 20 10.667Z" fill="white"/>
<path d="M26.7733 26.8668C23.0533 24.3868 16.9867 24.3868 13.24 26.8668C11.5467 28.0002 10.6133 29.5335 10.6133 31.1735C10.6133 32.8135 11.5467 34.3335 13.2267 35.4535C15.0933 36.7068 17.5467 37.3335 20 37.3335C22.4533 37.3335 24.9067 36.7068 26.7733 35.4535C28.4533 34.3202 29.3867 32.8002 29.3867 31.1468C29.3733 29.5068 28.4533 27.9868 26.7733 26.8668Z" fill="white"/>
<path opacity="0.4" d="M34.6533 17.7871C34.8667 20.3738 33.0267 22.6405 30.48 22.9471C30.4667 22.9471 30.4667 22.9471 30.4533 22.9471H30.4133C30.3333 22.9471 30.2533 22.9471 30.1867 22.9738C28.8933 23.0405 27.7067 22.6271 26.8133 21.8671C28.1867 20.6405 28.9733 18.8005 28.8133 16.8005C28.72 15.7205 28.3467 14.7338 27.7867 13.8938C28.2933 13.6405 28.88 13.4805 29.48 13.4271C32.0933 13.2005 34.4267 15.1471 34.6533 17.7871Z" fill="white"/>
<path d="M37.32 30.1199C37.2133 31.4132 36.3867 32.5332 35 33.2932C33.6667 34.0265 31.9867 34.3732 30.32 34.3332C31.28 33.4665 31.84 32.3865 31.9467 31.2399C32.08 29.5865 31.2933 27.9999 29.72 26.7332C28.8267 26.0265 27.7867 25.4665 26.6533 25.0532C29.6 24.1999 33.3067 24.7732 35.5867 26.6132C36.8133 27.5999 37.44 28.8399 37.32 30.1199Z" fill="white"/>
</svg>
